<svg id="Capa_1" data-name="Capa 1" xmlns="http://www.w3.org/2000/svg" viewBox="0 0 1369.7 94.8"><defs><style>.cls-1{fill:#fff;}</style></defs><title>Hamilton_text_8</title><path class="cls-1" d="M-55.95-29.25q0-8.15,1.7-10.3,2.55-3.3,8.1-3.3h3.25V-45.3H-81.75v2.45h3.2a12.54,12.54,0,0,1,6.15,1.6,6.14,6.14,0,0,1,2.75,2.9q.9,2.2.9,9.1V29.3q0,8.15-1.6,10.3-2.55,3.3-8.2,3.3h-3.2v2.45H-42.9V42.9h-3.25a12,12,0,0,1-6.1-1.65A5.89,5.89,0,0,1-55,38.4q-.9-2.2-.9-9.1V-29.25M83.35-27.7q0-8.1,1.1-10.25a8,8,0,0,1,4-3.55q2.85-1.4,10.1-1.35V-45.3H57.5v2.45h3.4q5.15,0,7.75,2.95,1.9,2.15,1.9,10.65v58.5q0,7.75-1.45,9.9-2.45,3.75-8.2,3.75H57.5v2.45h70.2l7.75-24.6-2.2-.45q-3.5,8.4-6.95,12.35a19,19,0,0,1-7.7,5.4Q114.4,39.6,104,39.6h-6.6Q88.6,39.6,86.9,39a4.93,4.93,0,0,1-2.45-2.1q-1.1-2-1.1-7.6V-27.7M-195.2-29.6q0-7.6,1.45-9.75,2.4-3.5,8.25-3.5h3.1V-45.3H-208L-240.4,25.65-273.3-45.3H-299v2.45q5.55,0,8.1,1.35a7,7,0,0,1,3.4,3.2q1.35,2.7,1.35,8.7V29.65q0,7.6-1.45,9.75-2.4,3.5-8.15,3.5H-299v2.45h31.6V42.9h-3.25q-5.35,0-7.8-2.85-1.8-2.05-1.8-10.4v-60.6l35.05,76.3h2.2l35-76.3v60.6q0,7.6-1.45,9.75-2.35,3.5-8.2,3.5h-3.2v2.45h38.5V42.9h-3.1q-5.35,0-7.85-2.85-1.85-2.05-1.85-10.4V-29.6M-655.4-41.3a12.76,12.76,0,0,1,6.1-1.55h3.3V-45.3h-38.85v2.45h3.2a12.73,12.73,0,0,1,6.15,1.6,6.48,6.48,0,0,1,2.75,2.9q.85,2.2.85,9.15V29.3q0,8.15-1.6,10.3-2.55,3.3-8.15,3.3h-3.2v2.45H-646V42.9h-3.3a12.15,12.15,0,0,1-6.1-1.65,6.2,6.2,0,0,1-2.8-2.85q-.85-2.2-.85-9.1V1.7h42.1V29.3q0,8.15-1.65,10.3-2.55,3.3-8.1,3.3h-3.2v2.45h38.75V42.9h-3.2a12.43,12.43,0,0,1-6.15-1.65,6.23,6.23,0,0,1-2.75-2.85q-.85-2.2-.85-9.1V-29.2q0-6.7.8-8.8a5.46,5.46,0,0,1,2.9-3.3,12.48,12.48,0,0,1,6-1.55h3.2V-45.3H-629.9v2.45h3.2a12.45,12.45,0,0,1,6.1,1.6,6.11,6.11,0,0,1,2.8,2.9q.85,2.2.85,9.15V-3.25H-659V-29.2q0-6.7.8-8.8a5.71,5.71,0,0,1,2.85-3.3M-444-47.4h-2.35l-31.85,74.65q-4.15,9.8-7.6,13-1.65,1.6-7.35,2.65v2.45h28.55V42.9q-6.55-.5-8.45-2.05a4.59,4.59,0,0,1-2-3.65q0-2.6,2.3-7.9L-466.7,15h35.1l5.5,13.05q2.65,6.35,2.65,9.3a4.59,4.59,0,0,1-1.85,3.7q-1.95,1.55-7.4,1.85v2.45h35.8V42.9q-5.55-.35-8.65-3.05t-7-11.8L-444-47.4m10.55,57.45h-31.15l15.8-36.65,15.35,36.65M664.25-40q1.85,2.05,1.85,10.4V22.7l-55.4-68H586.1v2.45a21.53,21.53,0,0,1,5.9.6,24.34,24.34,0,0,1,6,2.75,45.26,45.26,0,0,1,6,6.1V29.65q0,7.6-1.5,9.75-2.4,3.5-8.2,3.5H591.1v2.45h31.55V42.9h-3.2q-5.3,0-7.8-2.85-1.8-2.05-1.8-10.4V-26.2l59.75,73H672V-29.6q0-7.6,1.5-9.75,2.4-3.5,8.15-3.5h3.2V-45.3H653.3v2.45h3.15q5.35,0,7.8,2.85M235.5-38.7q2.65-.9,9-.9h10.9V29.65q0,7.6-1.45,9.75-2.45,3.5-8.2,3.5h-3.2v2.45H281V42.9h-3.15q-5.25,0-7.8-2.85-1.8-2.05-1.8-10.4V-39.6H281a19.45,19.45,0,0,1,9.1,1.85,13.39,13.39,0,0,1,5.5,5.7,26.24,26.24,0,0,1,2,8h2.55L299.1-45.3h-74l-1,21.25h2.55q.45-6.15,3-9.75a12.44,12.44,0,0,1,5.95-4.9m240.1,4.75Q462.6-47.4,445-47.4A43.42,43.42,0,0,0,414.4-35.55Q399.7-21.9,399.7-.3q0,21.1,12.8,34.4t31.4,13.3q18.5,0,31.55-13.6t13-34.3q0-20-12.9-33.45M443.7-42.5q12.95,0,20.35,9.1,9.15,11.45,9.15,34.7,0,21.45-8.3,31.4a26.38,26.38,0,0,1-21.15,10,23.47,23.47,0,0,1-19.25-9.1Q415,21.6,415-.6q0-21.65,9.2-32.85Q431.55-42.5,443.7-42.5Z"/></svg>